<svg width="266" height="267" viewBox="0 0 266 267" fill="none" xmlns="http://www.w3.org/2000/svg">
<g filter="url(#filter0_d_22_278)">
<rect x="28" y="11" width="210" height="210" rx="16.8" fill="white"/>
<g filter="url(#filter1_d_22_278)">
<path d="M28 32C28 20.402 37.402 11 49 11H217C228.598 11 238 20.402 238 32V200C238 211.598 228.598 221 217 221H49C37.402 221 28 211.598 28 200V32Z" fill="white"/>
</g>
<path d="M53.8999 87.6496C53.8999 87.0697 54.37 86.5996 54.9499 86.5996C55.5298 86.5996 55.9999 87.0697 55.9999 87.6496V176.55C55.9999 177.13 55.5298 177.6 54.9499 177.6C54.37 177.6 53.8999 177.13 53.8999 176.55V87.6496Z" fill="#EFF3FE"/>
<path d="M53.1997 130.35C53.1997 129.383 53.9832 128.6 54.9497 128.6C55.9162 128.6 56.6997 129.383 56.6997 130.35V175.85C56.6997 176.816 55.9162 177.6 54.9497 177.6C53.9832 177.6 53.1997 176.816 53.1997 175.85V130.35Z" fill="#5236FF"/>
<path d="M53.2261 191.682C54.3745 191.682 55.0376 190.687 55.0376 189.128C55.0376 187.58 54.3711 186.585 53.2261 186.585C52.0811 186.585 51.4077 187.587 51.4077 189.132C51.4077 190.69 52.0742 191.682 53.2261 191.682ZM53.2261 191.145C52.4536 191.145 52.0264 190.359 52.0264 189.128C52.0264 187.925 52.4639 187.125 53.2261 187.125C53.9883 187.125 54.4189 187.918 54.4189 189.132C54.4189 190.362 53.9951 191.145 53.2261 191.145Z" fill="#BACCFD"/>
<path d="M57.2846 191.6H57.8793V186.667H57.2777L55.9652 187.611V188.229L57.2709 187.32H57.2846V191.6Z" fill="#BACCFD"/>
<path d="M67.9004 87.6496C67.9004 87.0697 68.3705 86.5996 68.9504 86.5996C69.5303 86.5996 70.0004 87.0697 70.0004 87.6496V176.55C70.0004 177.13 69.5303 177.6 68.9504 177.6C68.3705 177.6 67.9004 177.13 67.9004 176.55V87.6496Z" fill="#EFF3FE"/>
<path d="M67.2002 158.35C67.2002 157.383 67.9837 156.6 68.9502 156.6C69.9167 156.6 70.7002 157.383 70.7002 158.35V175.85C70.7002 176.816 69.9167 177.6 68.9502 177.6C67.9837 177.6 67.2002 176.816 67.2002 175.85V158.35Z" fill="#5236FF"/>
<path d="M66.5264 191.682C67.6748 191.682 68.3379 190.687 68.3379 189.128C68.3379 187.58 67.6714 186.585 66.5264 186.585C65.3813 186.585 64.708 187.587 64.708 189.132C64.708 190.69 65.3745 191.682 66.5264 191.682ZM66.5264 191.145C65.7539 191.145 65.3267 190.359 65.3267 189.128C65.3267 187.925 65.7642 187.125 66.5264 187.125C67.2886 187.125 67.7192 187.918 67.7192 189.132C67.7192 190.362 67.2954 191.145 66.5264 191.145Z" fill="#BACCFD"/>
<path d="M69.2963 188.093H69.891C69.891 187.539 70.349 187.122 70.9574 187.122C71.5214 187.122 71.8837 187.508 71.8837 187.994C71.8837 188.404 71.7299 188.67 71.0634 189.364L69.3271 191.176V191.6H72.581V191.053H70.1713V191.039L71.3437 189.836C72.2494 188.906 72.4989 188.5 72.4989 187.956C72.4989 187.208 71.87 186.585 70.9574 186.585C70.0072 186.585 69.2963 187.228 69.2963 188.093Z" fill="#BACCFD"/>
<path d="M82.6001 87.6499C82.6001 87.07 83.0702 86.5999 83.6501 86.5999C84.23 86.5999 84.7001 87.07 84.7001 87.6499V176.55C84.7001 177.13 84.23 177.6 83.6501 177.6C83.0702 177.6 82.6001 177.13 82.6001 176.55V87.6499Z" fill="#EFF3FE"/>
<path d="M81.8999 137.35C81.8999 136.383 82.6834 135.6 83.6499 135.6C84.6164 135.6 85.3999 136.383 85.3999 137.35V175.85C85.3999 176.816 84.6164 177.6 83.6499 177.6C82.6834 177.6 81.8999 176.816 81.8999 175.85V137.35Z" fill="#5236FF"/>
<path d="M81.2261 191.682C82.3745 191.682 83.0376 190.687 83.0376 189.129C83.0376 187.58 82.3711 186.586 81.2261 186.586C80.0811 186.586 79.4077 187.587 79.4077 189.132C79.4077 190.691 80.0742 191.682 81.2261 191.682ZM81.2261 191.145C80.4536 191.145 80.0264 190.359 80.0264 189.129C80.0264 187.926 80.4639 187.126 81.2261 187.126C81.9883 187.126 82.4189 187.919 82.4189 189.132C82.4189 190.363 81.9951 191.145 81.2261 191.145Z" fill="#BACCFD"/>
<path d="M85.1 189.313H85.7187C86.4125 189.313 86.8466 189.655 86.8432 190.263C86.8397 190.78 86.4057 191.149 85.7563 191.149C85.1 191.149 84.6386 190.817 84.601 190.294H84.0097C84.0541 191.111 84.7343 191.682 85.7563 191.682C86.7235 191.682 87.4687 191.091 87.4687 190.243C87.4687 189.542 86.9799 189.094 86.2621 189.033V189.019C86.8808 188.889 87.308 188.469 87.308 187.857C87.308 187.153 86.7372 186.586 85.7494 186.586C84.8266 186.586 84.1771 187.122 84.1088 187.96H84.7001C84.7377 187.427 85.1684 187.119 85.7494 187.119C86.3817 187.119 86.6894 187.45 86.6894 187.939C86.6894 188.431 86.2792 188.794 85.6913 188.794H85.1V189.313Z" fill="#BACCFD"/>
<path d="M97.2998 87.6496C97.2998 87.0697 97.7699 86.5996 98.3498 86.5996C98.9297 86.5996 99.3998 87.0697 99.3998 87.6496V176.55C99.3998 177.13 98.9297 177.6 98.3498 177.6C97.7699 177.6 97.2998 177.13 97.2998 176.55V87.6496Z" fill="#EFF3FE"/>
<path d="M96.6001 137.35C96.6001 136.383 97.3836 135.6 98.3501 135.6C99.3166 135.6 100.1 136.383 100.1 137.35V175.85C100.1 176.816 99.3166 177.6 98.3501 177.6C97.3836 177.6 96.6001 176.816 96.6001 175.85V137.35Z" fill="#5236FF"/>
<path d="M95.9263 191.682C97.0747 191.682 97.7378 190.687 97.7378 189.128C97.7378 187.58 97.0713 186.585 95.9263 186.585C94.7813 186.585 94.1079 187.587 94.1079 189.132C94.1079 190.69 94.7744 191.682 95.9263 191.682ZM95.9263 191.145C95.1538 191.145 94.7266 190.359 94.7266 189.128C94.7266 187.925 95.1641 187.125 95.9263 187.125C96.6885 187.125 97.1191 187.918 97.1191 189.132C97.1191 190.362 96.6953 191.145 95.9263 191.145Z" fill="#BACCFD"/>
<path d="M101.14 191.6H101.735V190.574H102.432V190.034H101.735V186.667H100.826C99.6601 188.339 99.0824 189.238 98.662 190.017V190.574H101.14V191.6ZM99.2704 190.021C99.6601 189.337 100.197 188.513 101.13 187.18H101.14V190.034H99.2704V190.021Z" fill="#BACCFD"/>
<path d="M112 87.6496C112 87.0697 112.471 86.5996 113.05 86.5996C113.63 86.5996 114.1 87.0697 114.1 87.6496V176.55C114.1 177.13 113.63 177.6 113.05 177.6C112.471 177.6 112 177.13 112 176.55V87.6496Z" fill="#EFF3FE"/>
<path d="M111.3 130.35C111.3 129.383 112.084 128.6 113.05 128.6C114.017 128.6 114.8 129.383 114.8 130.35V175.85C114.8 176.816 114.017 177.6 113.05 177.6C112.084 177.6 111.3 176.816 111.3 175.85V130.35Z" fill="#5236FF"/>
<path d="M110.626 191.682C111.774 191.682 112.438 190.687 112.438 189.128C112.438 187.58 111.771 186.585 110.626 186.585C109.481 186.585 108.808 187.587 108.808 189.132C108.808 190.69 109.474 191.682 110.626 191.682ZM110.626 191.145C109.854 191.145 109.426 190.359 109.426 189.128C109.426 187.925 109.864 187.125 110.626 187.125C111.388 187.125 111.819 187.918 111.819 189.132C111.819 190.362 111.395 191.145 110.626 191.145Z" fill="#BACCFD"/>
<path d="M115.19 191.682C116.219 191.682 116.947 190.988 116.947 189.997C116.947 189.05 116.264 188.363 115.317 188.363C114.838 188.363 114.428 188.541 114.196 188.872H114.182L114.35 187.214H116.667V186.667H113.844L113.591 189.48H114.134C114.363 189.084 114.739 188.893 115.207 188.893C115.864 188.893 116.332 189.361 116.332 190.014C116.332 190.677 115.867 191.142 115.197 191.142C114.606 191.142 114.158 190.779 114.103 190.253H113.498C113.55 191.094 114.247 191.682 115.19 191.682Z" fill="#BACCFD"/>
<path d="M126.7 87.6496C126.7 87.0697 127.17 86.5996 127.75 86.5996C128.33 86.5996 128.8 87.0697 128.8 87.6496V176.55C128.8 177.13 128.33 177.6 127.75 177.6C127.17 177.6 126.7 177.13 126.7 176.55V87.6496Z" fill="#EFF3FE"/>
<path d="M126 140.85C126 139.883 126.783 139.1 127.75 139.1C128.716 139.1 129.5 139.883 129.5 140.85V175.85C129.5 176.816 128.716 177.6 127.75 177.6C126.783 177.6 126 176.816 126 175.85V140.85Z" fill="#5236FF"/>
<path d="M125.326 191.682C126.474 191.682 127.137 190.687 127.137 189.128C127.137 187.58 126.471 186.585 125.326 186.585C124.181 186.585 123.507 187.587 123.507 189.132C123.507 190.69 124.174 191.682 125.326 191.682ZM125.326 191.145C124.553 191.145 124.126 190.359 124.126 189.128C124.126 187.925 124.563 187.125 125.326 187.125C126.088 187.125 126.519 187.918 126.519 189.132C126.519 190.362 126.095 191.145 125.326 191.145Z" fill="#BACCFD"/>
<path d="M129.979 191.685C130.991 191.685 131.725 190.974 131.725 190C131.725 189.063 131.028 188.37 130.088 188.37C129.418 188.37 128.913 188.725 128.711 189.169H128.701C128.721 187.857 129.189 187.125 130.013 187.125C130.519 187.125 130.888 187.382 131.032 187.826H131.657C131.503 187.071 130.857 186.582 130.02 186.582C128.813 186.582 128.106 187.556 128.106 189.217C128.106 191.053 129.07 191.685 129.979 191.685ZM129.972 191.138C129.34 191.138 128.848 190.636 128.848 190.003C128.848 189.375 129.329 188.91 129.982 188.91C130.635 188.91 131.1 189.375 131.1 190.021C131.1 190.643 130.601 191.138 129.972 191.138Z" fill="#BACCFD"/>
<path d="M141.4 87.6496C141.4 87.0697 141.87 86.5996 142.45 86.5996C143.03 86.5996 143.5 87.0697 143.5 87.6496V176.55C143.5 177.13 143.03 177.6 142.45 177.6C141.87 177.6 141.4 177.13 141.4 176.55V87.6496Z" fill="#EFF3FE"/>
<path d="M140.7 119.85C140.7 118.883 141.484 118.1 142.45 118.1C143.417 118.1 144.2 118.883 144.2 119.85V175.85C144.2 176.816 143.417 177.6 142.45 177.6C141.484 177.6 140.7 176.816 140.7 175.85V119.85Z" fill="#5236FF"/>
<path d="M140.026 191.682C141.175 191.682 141.838 190.687 141.838 189.128C141.838 187.58 141.171 186.585 140.026 186.585C138.881 186.585 138.208 187.587 138.208 189.132C138.208 190.69 138.875 191.682 140.026 191.682ZM140.026 191.145C139.254 191.145 138.827 190.359 138.827 189.128C138.827 187.925 139.264 187.125 140.026 187.125C140.789 187.125 141.219 187.918 141.219 189.132C141.219 190.362 140.795 191.145 140.026 191.145Z" fill="#BACCFD"/>
<path d="M143.042 191.6H143.688L145.883 187.238V186.667H142.619V187.214H145.274V187.228L143.042 191.6Z" fill="#BACCFD"/>
<path d="M155.4 87.6496C155.4 87.0697 155.87 86.5996 156.45 86.5996C157.03 86.5996 157.5 87.0697 157.5 87.6496V176.55C157.5 177.13 157.03 177.6 156.45 177.6C155.87 177.6 155.4 177.13 155.4 176.55V87.6496Z" fill="#EFF3FE"/>
<path d="M154.7 137.35C154.7 136.383 155.484 135.6 156.45 135.6C157.417 135.6 158.2 136.383 158.2 137.35V175.85C158.2 176.816 157.417 177.6 156.45 177.6C155.484 177.6 154.7 176.816 154.7 175.85V137.35Z" fill="#5236FF"/>
<path d="M154.026 191.682C155.175 191.682 155.838 190.687 155.838 189.128C155.838 187.58 155.171 186.585 154.026 186.585C152.881 186.585 152.208 187.587 152.208 189.132C152.208 190.69 152.875 191.682 154.026 191.682ZM154.026 191.145C153.254 191.145 152.827 190.359 152.827 189.128C152.827 187.925 153.264 187.125 154.026 187.125C154.789 187.125 155.219 187.918 155.219 189.132C155.219 190.362 154.795 191.145 154.026 191.145Z" fill="#BACCFD"/>
<path d="M158.591 191.682C159.637 191.682 160.382 191.094 160.382 190.267C160.382 189.655 159.958 189.149 159.319 188.999V188.985C159.866 188.811 160.197 188.397 160.197 187.884C160.197 187.132 159.524 186.585 158.591 186.585C157.664 186.585 156.981 187.136 156.981 187.881C156.981 188.4 157.319 188.817 157.863 188.985V188.999C157.227 189.146 156.803 189.651 156.803 190.267C156.803 191.09 157.548 191.682 158.591 191.682ZM158.591 191.145C157.914 191.145 157.429 190.759 157.429 190.222C157.429 189.682 157.914 189.296 158.591 189.296C159.271 189.296 159.753 189.679 159.753 190.222C159.753 190.759 159.271 191.145 158.591 191.145ZM158.591 188.756C158.003 188.756 157.593 188.417 157.593 187.939C157.593 187.457 158.003 187.115 158.591 187.115C159.179 187.115 159.589 187.454 159.589 187.939C159.589 188.417 159.175 188.756 158.591 188.756Z" fill="#BACCFD"/>
<path d="M170.1 87.6499C170.1 87.07 170.57 86.5999 171.15 86.5999C171.73 86.5999 172.2 87.07 172.2 87.6499V176.55C172.2 177.13 171.73 177.6 171.15 177.6C170.57 177.6 170.1 177.13 170.1 176.55V87.6499Z" fill="#EFF3FE"/>
<path d="M169.4 168.85C169.4 167.883 170.183 167.1 171.15 167.1C172.116 167.1 172.9 167.883 172.9 168.85V175.85C172.9 176.816 172.116 177.6 171.15 177.6C170.183 177.6 169.4 176.816 169.4 175.85V168.85Z" fill="#5236FF"/>
<path d="M168.726 191.682C169.875 191.682 170.538 190.687 170.538 189.129C170.538 187.58 169.871 186.586 168.726 186.586C167.581 186.586 166.908 187.587 166.908 189.132C166.908 190.691 167.574 191.682 168.726 191.682ZM168.726 191.145C167.954 191.145 167.526 190.359 167.526 189.129C167.526 187.926 167.964 187.126 168.726 187.126C169.488 187.126 169.919 187.919 169.919 189.132C169.919 190.363 169.495 191.145 168.726 191.145Z" fill="#BACCFD"/>
<path d="M173.164 191.682C174.371 191.682 175.075 190.711 175.075 189.05C175.075 187.18 174.083 186.582 173.202 186.582C172.19 186.582 171.455 187.293 171.455 188.267C171.455 189.204 172.152 189.898 173.092 189.898C173.721 189.898 174.261 189.58 174.47 189.091H174.48C174.463 190.4 174.008 191.145 173.171 191.145C172.658 191.145 172.272 190.909 172.135 190.455H171.51C171.653 191.197 172.313 191.682 173.164 191.682ZM173.198 189.358C172.552 189.358 172.077 188.889 172.077 188.247C172.077 187.628 172.576 187.136 173.208 187.136C173.844 187.136 174.336 187.632 174.336 188.264C174.336 188.893 173.851 189.358 173.198 189.358Z" fill="#BACCFD"/>
<path d="M184.101 87.6496C184.101 87.0697 184.571 86.5996 185.151 86.5996C185.73 86.5996 186.201 87.0697 186.201 87.6496V176.55C186.201 177.13 185.73 177.6 185.151 177.6C184.571 177.6 184.101 177.13 184.101 176.55V87.6496Z" fill="#EFF3FE"/>
<path d="M183.4 144.35C183.4 143.383 184.184 142.6 185.15 142.6C186.117 142.6 186.9 143.383 186.9 144.35V175.85C186.9 176.816 186.117 177.6 185.15 177.6C184.184 177.6 183.4 176.816 183.4 175.85V144.35Z" fill="#5236FF"/>
<path d="M182.958 191.6H183.553V186.667H182.951L181.639 187.611V188.229L182.944 187.32H182.958V191.6Z" fill="#BACCFD"/>
<path d="M186.88 191.682C188.028 191.682 188.691 190.687 188.691 189.128C188.691 187.58 188.025 186.585 186.88 186.585C185.735 186.585 185.061 187.587 185.061 189.132C185.061 190.69 185.728 191.682 186.88 191.682ZM186.88 191.145C186.107 191.145 185.68 190.359 185.68 189.128C185.68 187.925 186.118 187.125 186.88 187.125C187.642 187.125 188.073 187.918 188.073 189.132C188.073 190.362 187.649 191.145 186.88 191.145Z" fill="#BACCFD"/>
<path d="M196.7 87.6499C196.7 87.07 197.17 86.5999 197.75 86.5999C198.33 86.5999 198.8 87.07 198.8 87.6499V176.55C198.8 177.13 198.33 177.6 197.75 177.6C197.17 177.6 196.7 177.13 196.7 176.55V87.6499Z" fill="#EFF3FE"/>
<path d="M196 151.35C196 150.383 196.784 149.6 197.75 149.6C198.716 149.6 199.5 150.383 199.5 151.35V175.85C199.5 176.816 198.716 177.6 197.75 177.6C196.784 177.6 196 176.816 196 175.85V151.35Z" fill="#5236FF"/>
<path d="M196.258 191.6H196.853V186.668H196.251L194.938 187.611V188.23L196.244 187.321H196.258V191.6Z" fill="#BACCFD"/>
<path d="M199.711 191.6H200.306V186.668H199.704L198.392 187.611V188.23L199.698 187.321H199.711V191.6Z" fill="#BACCFD"/>
<path d="M210 87.6496C210 87.0697 210.47 86.5996 211.05 86.5996C211.63 86.5996 212.1 87.0697 212.1 87.6496V176.55C212.1 177.13 211.63 177.6 211.05 177.6C210.47 177.6 210 177.13 210 176.55V87.6496Z" fill="#EFF3FE"/>
<path d="M209.3 151.35C209.3 150.383 210.083 149.6 211.05 149.6C212.016 149.6 212.8 150.383 212.8 151.35V175.85C212.8 176.816 212.016 177.6 211.05 177.6C210.083 177.6 209.3 176.816 209.3 175.85V151.35Z" fill="#5236FF"/>
<path d="M208.857 191.6H209.452V186.667H208.851L207.538 187.611V188.229L208.844 187.32H208.857V191.6Z" fill="#BACCFD"/>
<path d="M211.022 188.093H211.617C211.617 187.539 212.075 187.122 212.683 187.122C213.247 187.122 213.61 187.508 213.61 187.994C213.61 188.404 213.456 188.67 212.789 189.364L211.053 191.176V191.6H214.307V191.053H211.897V191.039L213.07 189.836C213.975 188.906 214.225 188.5 214.225 187.956C214.225 187.208 213.596 186.585 212.683 186.585C211.733 186.585 211.022 187.228 211.022 188.093Z" fill="#BACCFD"/>
<g clip-path="url(#clip0_22_278)">
<path fill-rule="evenodd" clip-rule="evenodd" d="M54.0436 51.394C53.9297 51.5079 53.9297 51.6926 54.0436 51.8065L55.8998 53.6626C56.0137 53.7765 56.1983 53.7765 56.3122 53.6626C56.4261 53.5487 56.4261 53.364 56.3122 53.2501L54.954 51.8919L64.7498 51.8919C64.9109 51.8919 65.0415 51.7613 65.0415 51.6002C65.0415 51.4391 64.9109 51.3085 64.7498 51.3085L54.954 51.3085L56.3122 49.9503C56.4261 49.8364 56.4261 49.6517 56.3122 49.5378C56.1983 49.4239 56.0137 49.4239 55.8998 49.5378L54.0436 51.394Z" fill="#121212"/>
<path d="M116.221 57.5666C115.428 57.5666 114.711 57.4272 114.07 57.1482C113.44 56.8693 112.94 56.4676 112.57 55.9432C112.201 55.4188 112.011 54.7995 112 54.0855H114.445C114.477 54.5652 114.64 54.9446 114.933 55.2235C115.238 55.5025 115.651 55.6419 116.172 55.6419C116.704 55.6419 117.123 55.5136 117.427 55.257C117.731 54.9892 117.883 54.6433 117.883 54.2193C117.883 53.8735 117.78 53.5889 117.574 53.3658C117.367 53.1426 117.106 52.9697 116.791 52.847C116.487 52.7131 116.063 52.568 115.52 52.4118C114.781 52.1887 114.178 51.9711 113.711 51.7591C113.255 51.5359 112.858 51.2068 112.522 50.7716C112.196 50.3253 112.033 49.734 112.033 48.9976C112.033 48.3058 112.201 47.7033 112.538 47.1901C112.875 46.6768 113.347 46.2863 113.956 46.0185C114.564 45.7396 115.259 45.6001 116.042 45.6001C117.215 45.6001 118.166 45.8958 118.894 46.4871C119.632 47.0673 120.04 47.8818 120.116 48.9306H117.606C117.584 48.529 117.416 48.1998 117.101 47.9432C116.797 47.6754 116.389 47.5415 115.879 47.5415C115.433 47.5415 115.075 47.6587 114.803 47.893C114.542 48.1273 114.412 48.4676 114.412 48.9139C114.412 49.2263 114.51 49.4885 114.705 49.7005C114.912 49.9014 115.162 50.0687 115.455 50.2026C115.759 50.3253 116.183 50.4704 116.726 50.6378C117.465 50.8609 118.068 51.0841 118.535 51.3072C119.002 51.5304 119.404 51.8651 119.741 52.3114C120.078 52.7577 120.246 53.3435 120.246 54.0687C120.246 54.6935 120.089 55.2737 119.774 55.8093C119.459 56.3449 118.997 56.7744 118.388 57.098C117.78 57.4104 117.057 57.5666 116.221 57.5666Z" fill="black"/>
<path d="M125.152 50.1022V54.5875C125.152 54.9 125.223 55.1287 125.364 55.2737C125.516 55.4076 125.766 55.4746 126.114 55.4746H127.173V57.4495H125.739C123.816 57.4495 122.854 56.4899 122.854 54.5708V50.1022H121.779V48.1775H122.854V45.8846H125.152V48.1775H127.173V50.1022H125.152Z" fill="black"/>
<path d="M128.499 52.78C128.499 51.8428 128.678 51.0115 129.037 50.2863C129.406 49.561 129.901 49.0032 130.52 48.6126C131.15 48.2221 131.851 48.0269 132.622 48.0269C133.296 48.0269 133.883 48.1663 134.382 48.4453C134.893 48.7242 135.3 49.0757 135.605 49.4997V48.1775H137.902V57.4495H135.605V56.0938C135.311 56.529 134.904 56.8916 134.382 57.1817C133.872 57.4606 133.28 57.6001 132.606 57.6001C131.845 57.6001 131.15 57.3993 130.52 56.9976C129.901 56.5959 129.406 56.0325 129.037 55.3072C128.678 54.5708 128.499 53.7284 128.499 52.78ZM135.605 52.8135C135.605 52.2444 135.496 51.7591 135.279 51.3574C135.061 50.9446 134.768 50.6322 134.399 50.4202C134.029 50.197 133.633 50.0855 133.209 50.0855C132.785 50.0855 132.394 50.1914 132.036 50.4034C131.677 50.6154 131.384 50.9279 131.156 51.3407C130.938 51.7424 130.83 52.2221 130.83 52.78C130.83 53.3379 130.938 53.8288 131.156 54.2528C131.384 54.6656 131.677 54.9836 132.036 55.2068C132.405 55.4299 132.796 55.5415 133.209 55.5415C133.633 55.5415 134.029 55.4355 134.399 55.2235C134.768 55.0004 135.061 54.688 135.279 54.2863C135.496 53.8735 135.605 53.3825 135.605 52.8135Z" fill="black"/>
<path d="M143.059 50.1022V54.5875C143.059 54.9 143.129 55.1287 143.271 55.2737C143.423 55.4076 143.673 55.4746 144.02 55.4746H145.08V57.4495H143.646C141.722 57.4495 140.761 56.4899 140.761 54.5708V50.1022H139.685V48.1775H140.761V45.8846H143.059V48.1775H145.08V50.1022H143.059Z" fill="black"/>
<path d="M150.447 57.6001C149.708 57.6001 149.046 57.4662 148.459 57.1984C147.872 56.9195 147.405 56.5457 147.057 56.0771C146.721 55.6085 146.536 55.0896 146.503 54.5206H148.801C148.845 54.8776 149.013 55.1733 149.306 55.4076C149.611 55.6419 149.986 55.7591 150.431 55.7591C150.866 55.7591 151.202 55.6698 151.441 55.4913C151.691 55.3128 151.816 55.0841 151.816 54.8051C151.816 54.5039 151.664 54.2807 151.36 54.1357C151.067 53.9795 150.594 53.8121 149.942 53.6336C149.268 53.4662 148.714 53.2933 148.28 53.1147C147.856 52.9362 147.487 52.6629 147.172 52.2947C146.867 51.9265 146.715 51.4299 146.715 50.8051C146.715 50.2919 146.856 49.8232 147.139 49.3993C147.432 48.9753 147.845 48.6405 148.378 48.3951C148.921 48.1496 149.556 48.0269 150.284 48.0269C151.36 48.0269 152.218 48.3058 152.859 48.8637C153.5 49.4104 153.853 50.1524 153.919 51.0896H151.735C151.702 50.7214 151.55 50.4313 151.278 50.2193C151.018 49.9962 150.665 49.8846 150.219 49.8846C149.806 49.8846 149.486 49.9627 149.258 50.1189C149.04 50.2751 148.932 50.4927 148.932 50.7716C148.932 51.0841 149.084 51.3239 149.388 51.4913C149.692 51.6475 150.165 51.8093 150.806 51.9767C151.458 52.144 151.995 52.317 152.419 52.4955C152.843 52.674 153.207 52.953 153.511 53.3323C153.826 53.7005 153.989 54.1915 154 54.8051C154 55.3407 153.853 55.8205 153.56 56.2444C153.278 56.6684 152.865 57.0032 152.321 57.2486C151.789 57.4829 151.164 57.6001 150.447 57.6001Z" fill="black"/>
<path fill-rule="evenodd" clip-rule="evenodd" d="M211.956 51.394C212.07 51.5079 212.07 51.6926 211.956 51.8065L210.1 53.6626C209.986 53.7765 209.802 53.7765 209.688 53.6626C209.574 53.5487 209.574 53.364 209.688 53.2501L211.046 51.8919L201.25 51.8919C201.089 51.8919 200.958 51.7613 200.958 51.6002C200.958 51.4391 201.089 51.3085 201.25 51.3085L211.046 51.3085L209.688 49.9503C209.574 49.8364 209.574 49.6517 209.688 49.5378C209.802 49.4239 209.986 49.4239 210.1 49.5378L211.956 51.394Z" fill="#121212"/>
</g>
</g>
<defs>
<filter id="filter0_d_22_278" x="0" y="0.5" width="266" height="266" filterUnits="userSpaceOnUse" color-interpolation-filters="sRGB">
<feFlood flood-opacity="0" result="BackgroundImageFix"/>
<feColorMatrix in="SourceAlpha" type="matrix" values="0 0 0 0 0 0 0 0 0 0 0 0 0 0 0 0 0 0 127 0" result="hardAlpha"/>
<feOffset dy="17.5"/>
<feGaussianBlur stdDeviation="14"/>
<feColorMatrix type="matrix" values="0 0 0 0 0 0 0 0 0 0 0 0 0 0 0 0 0 0 0.1 0"/>
<feBlend mode="normal" in2="BackgroundImageFix" result="effect1_dropShadow_22_278"/>
<feBlend mode="normal" in="SourceGraphic" in2="effect1_dropShadow_22_278" result="shape"/>
</filter>
<filter id="filter1_d_22_278" x="24" y="11" width="218" height="218" filterUnits="userSpaceOnUse" color-interpolation-filters="sRGB">
<feFlood flood-opacity="0" result="BackgroundImageFix"/>
<feColorMatrix in="SourceAlpha" type="matrix" values="0 0 0 0 0 0 0 0 0 0 0 0 0 0 0 0 0 0 127 0" result="hardAlpha"/>
<feOffset dy="4"/>
<feGaussianBlur stdDeviation="2"/>
<feComposite in2="hardAlpha" operator="out"/>
<feColorMatrix type="matrix" values="0 0 0 0 0 0 0 0 0 0 0 0 0 0 0 0 0 0 0.25 0"/>
<feBlend mode="normal" in2="BackgroundImageFix" result="effect1_dropShadow_22_278"/>
<feBlend mode="normal" in="SourceGraphic" in2="effect1_dropShadow_22_278" result="shape"/>
</filter>
<clipPath id="clip0_22_278">
<rect width="161" height="14" fill="white" transform="translate(52.5 44.6001)"/>
</clipPath>
</defs>
</svg>
